<?xml version="1.0" encoding="UTF-8" standalone="no"?>
<!DOCTYPE svg PUBLIC "-//W3C//DTD SVG 1.1//EN" "http://www.w3.org/Graphics/SVG/1.1/DTD/svg11.dtd">
<svg version="1.1" xmlns="http://www.w3.org/2000/svg" xmlns:xlink="http://www.w3.org/1999/xlink" preserveAspectRatio="xMidYMid meet" viewBox="0 0 900 600" width="900" height="600"><defs><path d="M0 0L900 0L900 600L0 600L0 0Z" id="a1jQ20pEen"></path><path d="M0 0L900 0L900 300L0 300L0 0Z" id="b5KnNW9pEf"></path><path d="M451.4 97.79L452.07 98.63L452.74 99.48L453.38 100.34L454.02 101.22L454.64 102.11L455.24 103L455.83 103.91L456.4 104.83L456.95 105.76L457.49 106.7L458.02 107.65L458.52 108.61L459.01 109.58L459.49 110.56L459.94 111.55L460.38 112.55L460.8 113.56L461.21 114.57L461.59 115.6L461.96 116.63L462.31 117.68L462.64 118.73L462.96 119.79L463.25 120.86L463.53 121.93L463.78 123.01L464.02 124.1L464.24 125.2L464.43 126.31L464.61 127.42L464.77 128.54L464.9 129.66L465.02 130.79L465.12 131.93L465.19 133.07L465.25 134.22L465.28 135.37L465.29 136.53L465.24 139.08L465.18 141.63L465.1 144.18L465.02 146.73L464.92 149.28L464.82 151.83L464.7 154.38L464.58 156.93L464.45 159.48L464.31 162.02L464.16 164.57L464.01 167.12L463.85 169.67L463.69 172.22L463.52 174.77L463.36 177.31L463.19 179.86L463.01 182.41L462.84 184.96L462.67 187.51L462.49 190.05L462.32 192.6L462.15 195.15L461.98 197.7L461.82 200.25L461.65 202.79L461.5 205.34L461.35 207.89L461.2 210.44L461.06 212.99L460.93 215.53L460.81 218.08L460.69 220.63L460.59 223.18L460.49 225.73L460.41 228.28L460.34 230.83L460.27 233.38L460.23 235.92L460.19 238.47L460.16 240.85L460.16 243.21L460.19 245.57L460.27 247.92L460.37 250.27L460.52 252.61L460.7 254.94L460.91 257.26L461.15 259.58L461.42 261.9L461.73 264.2L462.06 266.5L462.43 268.8L462.82 271.09L463.24 273.37L463.69 275.65L464.16 277.92L464.66 280.19L465.18 282.45L465.73 284.71L466.3 286.96L466.89 289.21L467.51 291.45L468.14 293.69L468.8 295.92L469.47 298.15L470.16 300.37L470.87 302.59L471.6 304.81L472.34 307.02L473.1 309.23L473.88 311.44L474.66 313.64L475.46 315.83L476.28 318.03L477.1 320.22L477.94 322.41L478.78 324.59L479.64 326.77L480.5 328.95L480.79 329.55L481.08 330.15L481.37 330.75L481.66 331.35L481.96 331.95L482.25 332.55L482.55 333.15L482.84 333.75L483.14 334.34L483.44 334.94L483.74 335.53L484.04 336.13L484.34 336.72L484.64 337.32L484.95 337.91L485.25 338.51L485.55 339.1L485.86 339.69L486.16 340.29L486.47 340.88L486.78 341.47L487.08 342.06L487.39 342.65L487.7 343.25L488.01 343.84L488.32 344.43L488.63 345.02L488.94 345.61L489.25 346.2L489.56 346.79L489.87 347.38L490.18 347.97L490.5 348.56L490.81 349.15L491.12 349.74L491.43 350.33L491.74 350.92L492.06 351.51L492.37 352.1L492.68 352.68L504.94 350.22L505.76 350.03L506.57 349.82L507.36 349.58L508.13 349.31L508.89 349L509.63 348.68L510.35 348.32L511.06 347.93L511.74 347.53L512.41 347.09L513.06 346.63L513.68 346.15L514.29 345.65L514.88 345.12L515.44 344.57L515.98 344L516.5 343.41L516.99 342.81L517.46 342.18L517.91 341.54L518.33 340.88L518.73 340.21L519.1 339.52L519.45 338.81L519.76 338.1L520.05 337.37L520.32 336.62L520.55 335.87L520.76 335.11L520.93 334.33L521.08 333.55L521.19 332.76L521.28 331.96L521.33 331.16L521.35 330.35L521.34 329.54L521.29 328.72L521.21 327.9L521.1 327.07L520.95 326.24L520.79 325.52L520.61 324.82L520.41 324.12L520.18 323.44L519.93 322.77L519.66 322.11L519.36 321.46L519.05 320.83L518.71 320.22L518.36 319.61L517.98 319.02L517.59 318.45L517.18 317.89L516.75 317.35L516.3 316.82L515.84 316.31L515.36 315.81L514.86 315.34L514.35 314.88L513.83 314.43L513.29 314.01L512.73 313.6L512.17 313.22L511.59 312.85L511 312.5L510.4 312.17L509.78 311.86L509.16 311.57L508.52 311.31L507.88 311.06L507.23 310.84L506.57 310.63L505.9 310.45L505.22 310.29L504.54 310.16L503.85 310.05L503.16 309.96L502.46 309.89L501.75 309.85L501.04 309.84L496.58 310.31L506.54 227.17L506.81 224.4L507.14 221.65L507.53 218.91L507.98 216.2L508.49 213.51L509.05 210.83L509.66 208.18L510.34 205.55L511.06 202.94L511.84 200.35L512.67 197.79L513.56 195.25L514.5 192.74L515.48 190.25L516.52 187.79L517.61 185.35L518.75 182.94L519.93 180.56L521.17 178.21L522.45 175.89L523.78 173.59L525.15 171.33L526.57 169.1L528.03 166.9L529.54 164.73L531.09 162.6L532.69 160.49L534.33 158.43L536 156.4L537.72 154.4L539.48 152.44L541.28 150.52L543.12 148.63L544.99 146.78L546.91 144.97L548.86 143.2L550.85 141.47L552.87 139.78L554.93 138.14L557.02 136.53L557.38 136.26L557.75 135.99L558.11 135.72L558.48 135.45L558.85 135.18L559.22 134.92L559.59 134.65L559.96 134.39L560.33 134.13L560.7 133.87L561.07 133.61L561.45 133.35L561.82 133.09L562.2 132.83L562.58 132.58L562.96 132.33L563.34 132.08L563.72 131.82L564.1 131.57L564.48 131.33L564.86 131.08L565.25 130.83L565.63 130.59L566.02 130.35L566.4 130.11L566.79 129.87L567.18 129.63L567.57 129.39L567.96 129.15L568.35 128.92L568.74 128.69L569.14 128.46L569.53 128.23L569.93 128L570.32 127.77L570.72 127.54L571.11 127.32L571.51 127.1L571.91 126.87L572.31 126.65L572.31 421.98L504.15 421.98L503.75 424.04L503.31 426.1L502.83 428.14L502.32 430.17L501.77 432.18L501.18 434.17L500.56 436.15L499.91 438.12L499.21 440.07L498.49 442L497.73 443.91L496.93 445.81L496.1 447.69L495.24 449.55L494.35 451.39L493.42 453.22L492.46 455.02L491.47 456.8L490.45 458.57L489.4 460.31L488.32 462.04L487.2 463.74L486.06 465.42L484.89 467.07L483.69 468.71L482.46 470.32L481.2 471.91L479.91 473.48L478.6 475.02L477.25 476.54L475.89 478.03L474.49 479.5L473.07 480.95L471.62 482.36L470.15 483.76L468.65 485.12L467.13 486.46L465.59 487.77L464.02 489.05L462.42 490.31L462.04 490.58L461.66 490.85L461.29 491.12L460.92 491.4L460.55 491.68L460.19 491.96L459.83 492.25L459.47 492.55L459.12 492.85L458.76 493.15L458.42 493.45L458.07 493.76L457.73 494.08L457.4 494.39L457.06 494.71L456.73 495.04L456.41 495.36L456.09 495.7L455.77 496.03L455.45 496.37L455.14 496.71L454.83 497.06L454.53 497.41L454.23 497.76L453.94 498.12L453.64 498.48L453.36 498.84L453.07 499.21L452.79 499.58L452.52 499.95L452.25 500.33L451.98 500.7L451.72 501.09L451.46 501.47L451.21 501.86L450.96 502.25L450.71 502.65L450.47 503.05L450.23 503.45L450 503.85L449.77 503.45L449.53 503.05L449.29 502.65L449.04 502.25L448.79 501.86L448.54 501.47L448.28 501.09L448.02 500.7L447.75 500.33L447.48 499.95L447.21 499.58L446.93 499.21L446.64 498.84L446.36 498.48L446.06 498.12L445.77 497.76L445.47 497.41L445.17 497.06L444.86 496.71L444.55 496.37L444.23 496.03L443.91 495.7L443.59 495.36L443.27 495.04L442.94 494.71L442.6 494.39L442.27 494.08L441.93 493.76L441.58 493.45L441.24 493.15L440.88 492.85L440.53 492.55L440.17 492.25L439.81 491.96L439.45 491.68L439.08 491.4L438.71 491.12L438.34 490.85L437.96 490.58L437.58 490.31L435.98 489.05L434.41 487.77L432.87 486.46L431.35 485.12L429.85 483.76L428.38 482.36L426.93 480.95L425.51 479.5L424.11 478.03L422.75 476.54L421.4 475.02L420.09 473.48L418.8 471.91L417.54 470.32L416.31 468.71L415.11 467.07L413.94 465.42L412.8 463.74L411.68 462.04L410.6 460.31L409.55 458.57L408.53 456.8L407.54 455.02L406.58 453.22L405.65 451.39L404.76 449.55L403.9 447.69L403.07 445.81L402.27 443.91L401.51 442L400.79 440.07L400.09 438.12L399.44 436.15L398.82 434.17L398.23 432.18L397.68 430.17L397.17 428.14L396.69 426.1L396.25 424.04L395.85 421.98L327.69 421.98L327.69 126.65L328.09 126.87L328.49 127.1L328.89 127.32L329.28 127.54L329.68 127.77L330.07 128L330.47 128.23L330.86 128.46L331.26 128.69L331.65 128.92L332.04 129.15L332.43 129.39L332.82 129.63L333.21 129.87L333.6 130.11L333.98 130.35L334.37 130.59L334.75 130.83L335.14 131.08L335.52 131.33L335.9 131.57L336.28 131.82L336.66 132.08L337.04 132.33L337.42 132.58L337.8 132.83L338.18 133.09L338.55 133.35L338.93 133.61L339.3 133.87L339.67 134.13L340.04 134.39L340.41 134.65L340.78 134.92L341.15 135.18L341.52 135.45L341.89 135.72L342.25 135.99L342.62 136.26L342.98 136.53L345.07 138.14L347.13 139.78L349.15 141.47L351.14 143.2L353.09 144.97L355.01 146.78L356.88 148.63L358.72 150.52L360.52 152.44L362.28 154.4L364 156.4L365.67 158.43L367.31 160.49L368.91 162.6L370.46 164.73L371.97 166.9L373.43 169.1L374.85 171.33L376.22 173.59L377.55 175.89L378.83 178.21L380.07 180.56L381.25 182.94L382.39 185.35L383.48 187.79L384.52 190.25L385.5 192.74L386.44 195.25L387.33 197.79L388.16 200.35L388.94 202.94L389.66 205.55L390.34 208.18L390.95 210.83L391.51 213.51L392.02 216.2L392.47 218.91L392.86 221.65L393.19 224.4L393.46 227.17L403.42 310.31L398.96 309.84L398.25 309.85L397.54 309.89L396.84 309.96L396.15 310.05L395.46 310.16L394.78 310.29L394.1 310.45L393.43 310.63L392.77 310.84L392.12 311.06L391.48 311.31L390.84 311.57L390.22 311.86L389.6 312.17L389 312.5L388.41 312.85L387.83 313.22L387.27 313.6L386.71 314.01L386.17 314.43L385.65 314.88L385.14 315.34L384.64 315.81L384.16 316.31L383.7 316.82L383.25 317.35L382.82 317.89L382.41 318.45L382.02 319.02L381.64 319.61L381.29 320.22L380.95 320.83L380.64 321.46L380.34 322.11L380.07 322.77L379.82 323.44L379.59 324.12L379.39 324.82L379.21 325.52L379.05 326.24L378.9 327.07L378.79 327.9L378.71 328.72L378.66 329.54L378.65 330.35L378.67 331.16L378.72 331.96L378.81 332.76L378.92 333.55L379.07 334.33L379.24 335.11L379.45 335.87L379.68 336.62L379.95 337.37L380.24 338.1L380.55 338.81L380.9 339.52L381.27 340.21L381.67 340.88L382.09 341.54L382.54 342.18L383.01 342.81L383.5 343.41L384.02 344L384.56 344.57L385.12 345.12L385.71 345.65L386.32 346.15L386.94 346.63L387.59 347.09L388.26 347.53L388.94 347.93L389.65 348.32L390.37 348.68L391.11 349L391.87 349.31L392.64 349.58L393.43 349.82L394.24 350.03L395.06 350.22L407.32 352.68L407.63 352.1L407.94 351.51L408.26 350.92L408.57 350.33L408.88 349.74L409.19 349.15L409.5 348.56L409.82 347.97L410.13 347.38L410.44 346.79L410.75 346.2L411.06 345.61L411.37 345.02L411.68 344.43L411.99 343.84L412.3 343.25L412.61 342.65L412.92 342.06L413.22 341.47L413.53 340.88L413.84 340.29L414.14 339.69L414.45 339.1L414.75 338.51L415.05 337.91L415.36 337.32L415.66 336.72L415.96 336.13L416.26 335.53L416.56 334.94L416.86 334.34L417.16 333.75L417.45 333.15L417.75 332.55L418.04 331.95L418.34 331.35L418.63 330.75L418.92 330.15L419.21 329.55L419.5 328.95L420.36 326.77L421.22 324.59L422.06 322.41L422.9 320.22L423.72 318.03L424.54 315.83L425.34 313.64L426.12 311.44L426.9 309.23L427.66 307.02L428.4 304.81L429.13 302.59L429.84 300.37L430.53 298.15L431.2 295.92L431.86 293.69L432.49 291.45L433.11 289.21L433.7 286.96L434.27 284.71L434.82 282.45L435.34 280.19L435.84 277.92L436.31 275.65L436.76 273.37L437.18 271.09L437.57 268.8L437.94 266.5L438.27 264.2L438.58 261.9L438.85 259.58L439.09 257.26L439.3 254.94L439.48 252.61L439.63 250.27L439.73 247.92L439.81 245.57L439.84 243.21L439.84 240.85L439.81 238.47L439.77 235.92L439.73 233.38L439.66 230.83L439.59 228.28L439.51 225.73L439.41 223.18L439.31 220.63L439.19 218.08L439.07 215.53L438.94 212.99L438.8 210.44L438.65 207.89L438.5 205.34L438.35 202.79L438.18 200.25L438.02 197.7L437.85 195.15L437.68 192.6L437.51 190.05L437.33 187.51L437.16 184.96L436.99 182.41L436.81 179.86L436.64 177.31L436.48 174.77L436.31 172.22L436.15 169.67L435.99 167.12L435.84 164.57L435.69 162.02L435.55 159.48L435.42 156.93L435.3 154.38L435.18 151.83L435.08 149.28L434.98 146.73L434.9 144.18L434.82 141.63L434.76 139.08L434.71 136.53L434.72 135.37L434.75 134.22L434.81 133.07L434.88 131.93L434.98 130.79L435.09 129.66L435.23 128.54L435.39 127.42L435.57 126.31L435.76 125.2L435.98 124.1L436.22 123.01L436.47 121.93L436.75 120.86L437.04 119.79L437.36 118.73L437.69 117.68L438.04 116.63L438.41 115.6L438.79 114.57L439.2 113.56L439.62 112.55L440.06 111.55L440.51 110.56L440.99 109.58L441.48 108.61L441.98 107.65L442.51 106.7L443.05 105.76L443.6 104.83L444.17 103.91L444.76 103L445.36 102.11L445.98 101.22L446.62 100.34L447.26 99.48L447.93 98.63L448.6 97.79L449.29 96.96L450 96.15L450.71 96.96L451.4 97.79ZM460.19 464.9L461.64 463.35L463.06 461.77L464.43 460.15L465.77 458.5L467.08 456.82L468.34 455.11L469.57 453.37L470.75 451.6L471.9 449.8L473.01 447.97L474.07 446.12L475.09 444.24L476.07 442.33L477.01 440.4L477.9 438.44L478.75 436.46L479.55 434.46L480.3 432.43L481.01 430.38L481.67 428.31L482.29 426.22L482.85 424.11L483.36 421.98L460.19 421.98L460.19 464.9ZM417.15 424.11L417.71 426.22L418.33 428.31L418.99 430.38L419.7 432.43L420.45 434.46L421.25 436.46L422.1 438.44L422.99 440.4L423.93 442.33L424.91 444.24L425.93 446.12L426.99 447.97L428.1 449.8L429.25 451.6L430.43 453.37L431.66 455.11L432.92 456.82L434.23 458.5L435.57 460.15L436.94 461.77L438.36 463.35L439.81 464.9L439.81 421.98L416.64 421.98L417.15 424.11ZM477.85 377.39L475.85 378.13L473.92 379.03L472.09 380.08L470.35 381.28L468.72 382.61L467.21 384.07L465.83 385.64L464.57 387.33L463.46 389.12L462.5 391.01L461.69 392.98L461.05 395.03L460.58 397.16L460.29 399.34L460.19 401.59L485.67 401.59L485.66 400.05L485.62 398.52L485.55 396.99L485.46 395.47L485.35 393.96L485.2 392.46L485.04 390.96L484.85 389.47L484.63 387.99L484.39 386.51L484.13 385.05L483.84 383.59L483.54 382.14L483.21 380.7L482.86 379.26L482.48 377.84L482.09 376.42L479.94 376.82L477.85 377.39ZM540.09 341.47L539.78 342.51L539.44 343.53L539.07 344.55L538.68 345.55L538.26 346.54L537.82 347.51L537.35 348.47L536.86 349.42L536.34 350.35L535.8 351.27L535.24 352.17L534.65 353.06L534.04 353.93L533.42 354.78L532.77 355.61L532.09 356.43L531.4 357.23L530.69 358.01L529.96 358.78L529.2 359.52L528.43 360.24L527.65 360.95L526.84 361.63L526.01 362.3L525.17 362.94L524.31 363.56L523.44 364.16L522.54 364.73L521.64 365.29L520.71 365.82L519.78 366.33L518.83 366.81L517.86 367.27L516.88 367.7L515.89 368.11L514.88 368.5L513.86 368.85L512.83 369.19L511.79 369.49L502 371.72L502.19 372.43L502.38 373.15L502.57 373.87L502.75 374.59L502.93 375.31L503.1 376.03L503.26 376.76L503.43 377.48L503.59 378.21L503.74 378.94L503.89 379.68L504.03 380.41L504.17 381.15L504.31 381.88L504.44 382.62L504.56 383.36L504.68 384.11L504.8 384.85L504.91 385.6L505.01 386.34L505.11 387.09L505.21 387.84L505.3 388.59L505.38 389.35L505.47 390.1L505.54 390.86L505.61 391.61L505.68 392.37L505.74 393.13L505.79 393.9L505.84 394.66L505.89 395.42L505.93 396.19L505.96 396.96L505.99 397.72L506.02 398.49L506.03 399.27L506.05 400.04L506.06 400.81L506.06 401.59L551.93 401.59L551.93 340.42L540.38 340.42L540.09 341.47ZM348.07 401.59L393.94 401.59L393.94 400.81L393.95 400.04L393.97 399.27L393.98 398.49L394.01 397.72L394.04 396.96L394.07 396.19L394.11 395.42L394.16 394.66L394.21 393.9L394.26 393.13L394.32 392.37L394.39 391.61L394.46 390.86L394.53 390.1L394.62 389.35L394.7 388.59L394.79 387.84L394.89 387.09L394.99 386.34L395.09 385.6L395.2 384.85L395.32 384.11L395.44 383.36L395.56 382.62L395.69 381.88L395.83 381.15L395.97 380.41L396.11 379.68L396.26 378.94L396.41 378.21L396.57 377.48L396.74 376.76L396.9 376.03L397.07 375.31L397.25 374.59L397.43 373.87L397.62 373.15L397.81 372.43L398 371.72L388.21 369.49L387.17 369.19L386.14 368.85L385.12 368.5L384.11 368.11L383.12 367.7L382.14 367.27L381.17 366.81L380.22 366.33L379.29 365.82L378.36 365.29L377.46 364.73L376.56 364.16L375.69 363.56L374.83 362.94L373.99 362.3L373.16 361.63L372.35 360.95L371.57 360.24L370.8 359.52L370.04 358.78L369.31 358.01L368.6 357.23L367.91 356.43L367.23 355.61L366.58 354.78L365.96 353.93L365.35 353.06L364.76 352.17L364.2 351.27L363.66 350.35L363.14 349.42L362.65 348.47L362.18 347.51L361.74 346.54L361.32 345.55L360.93 344.55L360.56 343.53L360.22 342.51L359.91 341.47L359.62 340.42L348.07 340.42L348.07 401.59ZM417.14 379.26L416.79 380.7L416.46 382.14L416.16 383.59L415.87 385.05L415.61 386.51L415.37 387.99L415.15 389.47L414.96 390.96L414.8 392.46L414.65 393.96L414.54 395.47L414.45 396.99L414.38 398.52L414.34 400.05L414.33 401.59L439.81 401.59L439.71 399.34L439.42 397.16L438.95 395.03L438.31 392.98L437.5 391.01L436.54 389.12L435.43 387.33L434.17 385.64L432.79 384.07L431.28 382.61L429.65 381.28L427.91 380.08L426.08 379.03L424.15 378.13L422.15 377.39L420.06 376.82L417.91 376.42L417.52 377.84L417.14 379.26ZM448.98 310.3L448.46 311.91L447.92 313.52L447.37 315.13L446.81 316.73L446.24 318.32L445.66 319.91L445.07 321.5L444.46 323.08L443.85 324.65L443.22 326.22L442.58 327.78L441.94 329.34L441.28 330.89L440.61 332.43L439.93 333.97L439.24 335.51L438.54 337.03L437.83 338.56L437.1 340.07L436.37 341.58L435.63 343.09L434.87 344.58L434.11 346.08L433.34 347.56L432.55 349.04L431.75 350.51L430.95 351.98L430.13 353.44L429.31 354.89L428.47 356.34L427.62 357.78L428.43 358.04L429.23 358.3L430.02 358.58L430.81 358.88L431.59 359.19L432.36 359.51L433.13 359.84L433.89 360.19L434.64 360.55L435.38 360.93L436.12 361.31L436.84 361.71L437.56 362.13L438.27 362.55L438.97 362.99L439.67 363.44L440.35 363.9L441.03 364.37L441.69 364.86L442.35 365.36L443 365.87L443.64 366.39L444.27 366.92L444.89 367.46L445.5 368.02L446.1 368.58L446.69 369.16L447.27 369.74L447.83 370.34L448.39 370.95L448.94 371.57L449.48 372.2L450 372.83L450.52 372.2L451.06 371.57L451.61 370.95L452.17 370.34L452.73 369.74L453.31 369.16L453.9 368.58L454.5 368.02L455.11 367.46L455.73 366.92L456.36 366.39L457 365.87L457.65 365.36L458.31 364.86L458.97 364.37L459.65 363.9L460.33 363.44L461.03 362.99L461.73 362.55L462.44 362.13L463.16 361.71L463.88 361.31L464.62 360.93L465.36 360.55L466.11 360.19L466.87 359.84L467.64 359.51L468.41 359.19L469.19 358.88L469.98 358.58L470.77 358.3L471.57 358.04L472.38 357.78L471.53 356.34L470.69 354.89L469.87 353.44L469.05 351.98L468.25 350.51L467.45 349.04L466.66 347.56L465.89 346.08L465.13 344.58L464.37 343.09L463.63 341.58L462.9 340.07L462.17 338.56L461.46 337.03L460.76 335.51L460.07 333.97L459.39 332.43L458.72 330.89L458.06 329.34L457.42 327.78L456.78 326.22L456.15 324.65L455.54 323.08L454.93 321.5L454.34 319.91L453.76 318.32L453.19 316.73L452.63 315.13L452.08 313.52L451.54 311.91L451.02 310.3L450.5 308.67L450 307.05L449.5 308.67L448.98 310.3ZM359.62 320.03L359.85 319.17L360.1 318.31L360.37 317.47L360.66 316.63L360.97 315.8L361.29 314.98L361.63 314.17L361.98 313.36L362.35 312.57L362.74 311.79L363.15 311.01L363.57 310.25L364.01 309.49L364.46 308.75L364.93 308.01L365.41 307.29L365.91 306.58L366.42 305.88L366.95 305.19L367.49 304.51L368.05 303.85L368.62 303.19L369.2 302.55L369.8 301.92L370.41 301.31L371.03 300.7L371.66 300.11L372.31 299.54L372.97 298.97L373.64 298.43L374.32 297.89L375.02 297.37L375.72 296.86L376.44 296.37L377.17 295.9L377.91 295.44L378.66 294.99L379.41 294.56L380.18 294.15L380.96 293.75L372.76 225.17L372.62 224.11L372.45 223.02L372.25 221.92L372.04 220.8L371.8 219.66L371.53 218.51L371.24 217.34L370.93 216.15L370.59 214.94L370.23 213.72L369.84 212.48L369.43 211.23L368.99 209.96L368.53 208.67L368.05 207.36L367.54 206.04L367.01 204.7L366.45 203.34L365.87 201.96L365.27 200.57L364.64 199.16L363.99 197.74L363.31 196.3L362.61 194.84L361.88 193.36L361.13 191.87L360.35 190.36L359.56 188.83L358.73 187.29L357.88 185.73L357.01 184.15L356.12 182.55L355.2 180.94L354.25 179.31L353.28 177.67L352.29 176L351.27 174.32L350.23 172.63L349.17 170.91L348.07 169.18L348.07 320.03L359.62 320.03ZM549.98 171.54L549.03 172.73L548.1 173.94L547.19 175.17L546.29 176.4L545.41 177.65L544.55 178.92L543.7 180.19L542.87 181.48L542.07 182.78L541.27 184.1L540.5 185.42L539.75 186.76L539.01 188.11L538.3 189.47L537.6 190.85L536.92 192.23L536.26 193.63L535.63 195.03L535.01 196.45L534.41 197.88L533.83 199.32L533.27 200.76L532.73 202.22L532.21 203.69L531.72 205.17L531.24 206.65L530.79 208.15L530.36 209.66L529.94 211.17L529.55 212.69L529.19 214.23L528.84 215.77L528.52 217.31L528.22 218.87L527.94 220.44L527.68 222.01L527.45 223.59L527.24 225.17L519.04 293.75L519.82 294.15L520.59 294.56L521.34 294.99L522.09 295.44L522.83 295.9L523.56 296.37L524.28 296.86L524.98 297.37L525.68 297.89L526.36 298.43L527.03 298.97L527.69 299.54L528.34 300.11L528.97 300.7L529.59 301.31L530.2 301.92L530.8 302.55L531.38 303.19L531.95 303.85L532.51 304.51L533.05 305.19L533.58 305.88L534.09 306.58L534.59 307.29L535.07 308.01L535.54 308.75L535.99 309.49L536.43 310.25L536.85 311.01L537.26 311.79L537.65 312.57L538.02 313.36L538.37 314.17L538.71 314.98L539.03 315.8L539.34 316.63L539.63 317.47L539.9 318.31L540.15 319.17L540.38 320.03L551.93 320.03L551.93 169.18L550.94 170.35L549.98 171.54Z" id="c2ws4MiLZc"></path></defs><g><g><g><use xlink:href="#a1jQ20pEen" opacity="1" fill="#1f1a17" fill-opacity="1"></use></g><g><use xlink:href="#b5KnNW9pEf" opacity="1" fill="#da251c" fill-opacity="1"></use></g><g><use xlink:href="#c2ws4MiLZc" opacity="1" fill="#ffffff" fill-opacity="1"></use></g></g></g></svg>